<svg width="32" height="32" viewBox="0 0 32 32" fill="none" xmlns="http://www.w3.org/2000/svg">
<circle cx="16" cy="16" r="16" fill="#049555"/>
<path d="M16.4947 7.58646C11.4197 7.22812 7.228 11.4198 7.58634 16.4948C7.88634 20.9031 11.7363 24.2281 16.153 24.2281H19.228C19.6863 24.2281 20.0613 23.8531 20.0613 23.3948C20.0613 22.9365 19.6863 22.5615 19.228 22.5615H16.1697C13.0613 22.5615 10.2113 20.5448 9.43634 17.5365C8.19467 12.7031 12.6947 8.19479 17.528 9.44479C20.5447 10.2115 22.5613 13.0615 22.5613 16.1698V17.0865C22.5613 17.7448 21.9697 18.3948 21.3113 18.3948C20.653 18.3948 20.0613 17.7448 20.0613 17.0865V16.0448C20.0613 13.9531 18.578 12.0698 16.5113 11.7781C13.678 11.3698 11.2863 13.8198 11.7947 16.6698C12.078 18.2615 13.3197 19.5781 14.8947 19.9531C16.428 20.3115 17.8863 19.8198 18.8447 18.8448C19.5863 19.8615 21.0697 20.3948 22.428 19.8531C23.5447 19.4115 24.228 18.2698 24.228 17.0698V16.1615C24.228 11.7365 20.903 7.88646 16.4947 7.58646ZM15.8947 18.3948C14.5113 18.3948 13.3947 17.2781 13.3947 15.8948C13.3947 14.5115 14.5113 13.3948 15.8947 13.3948C17.278 13.3948 18.3947 14.5115 18.3947 15.8948C18.3947 17.2781 17.278 18.3948 15.8947 18.3948Z" fill="#F5FAF9"/>
</svg>
