<svg width="32" height="32" viewBox="0 0 32 32" fill="none" xmlns="http://www.w3.org/2000/svg">
<circle cx="16" cy="16" r="16" fill="#049555"/>
<path d="M21.9196 18.6114L19.8029 18.3697C19.2946 18.3114 18.7946 18.4864 18.4362 18.8447L16.9029 20.3781C14.5446 19.1781 12.6112 17.2531 11.4112 14.8864L12.9529 13.3447C13.3112 12.9864 13.4862 12.4864 13.4279 11.9781L13.1862 9.87808C13.0862 9.03641 12.3779 8.40308 11.5279 8.40308H10.0862C9.14457 8.40308 8.36123 9.18641 8.41957 10.1281C8.86123 17.2447 14.5529 22.9281 21.6612 23.3697C22.6029 23.4281 23.3862 22.6447 23.3862 21.7031V20.2614C23.3946 19.4197 22.7612 18.7114 21.9196 18.6114Z" fill="#F5FAF9"/>
</svg>
